<?xml version="1.0" encoding="UTF-8" standalone="no"?>
<svg width="125px" height="21px" viewBox="0 0 125 21" version="1.1" xmlns="http://www.w3.org/2000/svg" xmlns:xlink="http://www.w3.org/1999/xlink" xmlns:sketch="http://www.bohemiancoding.com/sketch/ns">
    <!-- Generator: Sketch 3.5.2 (25235) - http://www.bohemiancoding.com/sketch -->
    <title>iPad Pro Landscape Copy 10</title>
    <desc>Created with Sketch.</desc>
    <defs></defs>
    <g id="Page-1" stroke="none" stroke-width="1" fill="none" fill-rule="evenodd" sketch:type="MSPage">
        <g id="iPad-Pro-Landscape-Copy-10" sketch:type="MSArtboardGroup" fill="#321DD3">
            <path d="M23.1048093,14.3069833 C23.1048093,6.74765571 18.0893775,1 10.9545736,1 C5.05421533,1 1,5.22634448 1,11.2270453 C1,16.0721602 4.92783984,20 9.77295471,20 C13.7349119,20 16.9467731,16.7882018 16.9467731,12.8262724 C16.9467731,9.57087746 14.3077536,6.93189029 11.0523909,6.93189029 C8.36225464,6.93189029 6.18150326,9.11264167 6.18150326,11.802778 C6.18150326,14.0406113 7.9956894,15.8547974 10.2335227,15.8547974 C12.109677,15.8547974 13.630611,14.3338998 13.630611,12.4577999 C13.630611,10.8484336 12.7637599,9.84373538 11.1891931,9.84373538 C9.83448054,9.84373538 8.99437167,10.987646 8.99437167,12.38385 L10.5481912,12.38385 C10.5481912,11.7603369 10.8146249,11.3975549 11.1891931,11.3975549 C11.8504933,11.3975549 12.0767915,11.6598391 12.0767915,12.4577999 C12.0767915,13.4757407 11.2515345,14.3009779 10.2335227,14.3009779 C8.85384021,14.3009779 7.73532275,13.1824604 7.73532275,11.802778 C7.73532275,9.97079248 9.22040545,8.48570978 11.0523909,8.48570978 C13.449607,8.48570978 15.3929536,10.4290325 15.3929536,12.8262724 C15.3929536,15.9300442 12.8767679,18.4461805 9.77295471,18.4461805 C5.78599065,18.4461805 2.55381949,15.2140093 2.55381949,11.2270453 C2.55381949,6.07037373 5.92715268,2.55381949 10.9545736,2.55381949 C17.1805734,2.55381949 21.5509899,7.56229139 21.5509899,14.3069833 L23.1048093,14.3069833 L23.1048093,14.3069833 Z" id="Shape-Copy" sketch:type="MSShapeGroup"></path>
            <text id="eskargeaux-copy" sketch:type="MSTextLayer" font-family="Neuzeit Grotesk" font-size="19" font-weight="bold" sketch:alignment="middle" letter-spacing="-0.219967425">
                <tspan x="29.3648371" y="16">eskargeaux</tspan>
            </text>
        </g>
    </g>
</svg>